<svg width="1024" height="1024" viewBox="0 0 1024 1024" xmlns="http://www.w3.org/2000/svg">
  <defs>
    <linearGradient id="bgC" x1="0" y1="0" x2="1" y2="1">
      <stop offset="0%" stop-color="#0A0318"/>
      <stop offset="60%" stop-color="#1E1438"/>
      <stop offset="100%" stop-color="#12072B"/>
    </linearGradient>
    <linearGradient id="goldC" x1="0" y1="0" x2="1" y2="1">
      <stop offset="0%" stop-color="#FDE9A9"/>
      <stop offset="55%" stop-color="#F4D03F"/>
      <stop offset="100%" stop-color="#D4AF37"/>
    </linearGradient>
    <filter id="glowC" x="-40%" y="-40%" width="180%" height="180%">
      <feGaussianBlur stdDeviation="8" result="b"/>
      <feMerge>
        <feMergeNode in="b"/>
        <feMergeNode in="SourceGraphic"/>
      </feMerge>
    </filter>
    <radialGradient id="haloC" cx="50%" cy="52%" r="40%">
      <stop offset="0%" stop-color="#D4AF37" stop-opacity="0.36"/>
      <stop offset="100%" stop-color="#D4AF37" stop-opacity="0"/>
    </radialGradient>
  </defs>

  <rect x="32" y="32" width="960" height="960" rx="220" fill="url(#bgC)"/>
  <rect x="32" y="32" width="960" height="960" rx="220" fill="url(#haloC)"/>

  <circle cx="512" cy="512" r="315" fill="none" stroke="#D4AF37" stroke-width="14" opacity="0.48"/>
  <circle cx="512" cy="512" r="258" fill="none" stroke="#D4AF37" stroke-width="4" opacity="0.32"/>

  <g filter="url(#glowC)">
    <path d="M512 256 L734 676 L290 676 Z" fill="none" stroke="url(#goldC)" stroke-width="20" stroke-linejoin="round"/>
    <path d="M512 330 L662 616 L362 616 Z" fill="#D4AF37" fill-opacity="0.08" stroke="url(#goldC)" stroke-width="6"/>
  </g>

  <g filter="url(#glowC)">
    <path d="M512 386 L543 472 L636 472 L561 530 L590 615 L512 562 L434 615 L463 530 L388 472 L481 472 Z" fill="url(#goldC)"/>
  </g>

  <text x="512" y="728" text-anchor="middle" font-size="190" font-family="Times New Roman, serif" font-weight="700" fill="url(#goldC)">NUM</text>
</svg>
