<svg width="1024" height="1024" viewBox="0 0 1024 1024" xmlns="http://www.w3.org/2000/svg">
  <defs>
    <linearGradient id="bgB" x1="0" y1="0" x2="1" y2="1">
      <stop offset="0%" stop-color="#0A0318"/>
      <stop offset="35%" stop-color="#12072B"/>
      <stop offset="100%" stop-color="#2C1361"/>
    </linearGradient>
    <linearGradient id="goldB" x1="0" y1="0" x2="1" y2="1">
      <stop offset="0%" stop-color="#FDE9A9"/>
      <stop offset="45%" stop-color="#F4D03F"/>
      <stop offset="100%" stop-color="#D4AF37"/>
    </linearGradient>
    <filter id="glowB" x="-40%" y="-40%" width="180%" height="180%">
      <feGaussianBlur stdDeviation="10" result="b"/>
      <feMerge>
        <feMergeNode in="b"/>
        <feMergeNode in="SourceGraphic"/>
      </feMerge>
    </filter>
  </defs>

  <rect x="32" y="32" width="960" height="960" rx="220" fill="url(#bgB)"/>

  <g opacity="0.2" stroke="#8B7F99" stroke-width="1">
    <line x1="212" y1="210" x2="812" y2="210"/>
    <line x1="212" y1="330" x2="812" y2="330"/>
    <line x1="212" y1="450" x2="812" y2="450"/>
    <line x1="212" y1="570" x2="812" y2="570"/>
    <line x1="212" y1="690" x2="812" y2="690"/>
    <line x1="212" y1="810" x2="812" y2="810"/>
    <line x1="212" y1="210" x2="212" y2="810"/>
    <line x1="332" y1="210" x2="332" y2="810"/>
    <line x1="452" y1="210" x2="452" y2="810"/>
    <line x1="572" y1="210" x2="572" y2="810"/>
    <line x1="692" y1="210" x2="692" y2="810"/>
    <line x1="812" y1="210" x2="812" y2="810"/>
  </g>

  <circle cx="512" cy="512" r="296" fill="none" stroke="#D4AF37" stroke-opacity="0.45" stroke-width="10"/>
  <circle cx="512" cy="512" r="220" fill="none" stroke="#D4AF37" stroke-opacity="0.35" stroke-width="6"/>

  <g filter="url(#glowB)">
    <ellipse cx="512" cy="512" rx="360" ry="166" fill="none" stroke="url(#goldB)" stroke-width="17" transform="rotate(-24 512 512)"/>
    <ellipse cx="512" cy="512" rx="316" ry="120" fill="none" stroke="url(#goldB)" stroke-width="8" stroke-opacity="0.75" transform="rotate(18 512 512)"/>
  </g>

  <circle cx="512" cy="512" r="118" fill="#D4AF37" fill-opacity="0.12"/>
  <text x="512" y="615" text-anchor="middle" font-size="310" font-family="Times New Roman, serif" font-weight="700" fill="url(#goldB)" filter="url(#glowB)">9</text>

  <circle cx="806" cy="370" r="9" fill="#FDE9A9"/>
  <circle cx="202" cy="574" r="9" fill="#FDE9A9"/>
</svg>
