<?xml version="1.0" encoding="utf-8"?>

<!DOCTYPE svg PUBLIC "-//W3C//DTD SVG 1.1//EN" "http://www.w3.org/Graphics/SVG/1.1/DTD/svg11.dtd">
<!-- Uploaded to: SVG Repo, www.svgrepo.com, Generator: SVG Repo Mixer Tools -->
<svg version="1.1" id="_x32_" xmlns="http://www.w3.org/2000/svg" xmlns:xlink="http://www.w3.org/1999/xlink" 
	 width="800px" height="800px" viewBox="0 0 512 512"  xml:space="preserve">
<style type="text/css">
<![CDATA[
	.st0{fill:#000000;}
]]>
</style>
<g>
	<path class="st0" d="M475.619,295.503l-41.406-87.766c0.094-2.641,0.203-5.266,0.203-7.906
		c0-110.359-89.484-199.828-199.828-199.828c-110.375,0-199.844,89.469-199.844,199.828c0,62.047,28.281,117.5,72.672,154.156
		v70.625c0,6.891,4.109,13.125,10.453,15.813l165.5,70.203c5.313,2.25,11.375,1.703,16.172-1.469
		c4.813-3.188,7.703-8.563,7.703-14.313v-59.859c0-9.469,7.688-17.172,17.172-17.172h84.75c9.484,0,17.156-7.688,17.156-17.156
		V349.05c0-6.578,3.766-12.578,9.672-15.453l31.578-15.328C476.041,314.144,479.619,304.003,475.619,295.503z M320.76,207.753
		c0,4.266-2.422,9.797-5.344,12.281l-82.469,69.797c-2.922,2.484-7.75,2.484-10.688,0l-82.469-69.797
		c-2.938-2.484-5.344-8.016-5.344-12.281v-47.406c0-4.266,2.094-10.219,4.656-13.234l19.859-23.438
		c2.563-3.016,7.594-5.484,11.234-5.484h25.234c3.609,0,8.438,2.719,10.75,6.016l17.266,24.906c2.281,3.297,6.031,3.297,8.313,0
		l17.266-24.906c2.313-3.297,7.141-6.016,10.75-6.016h25.266c3.609,0,8.656,2.469,11.203,5.484l19.875,23.438
		c2.547,3.016,4.641,8.969,4.641,13.234V207.753z"/>
</g>
</svg>