<?xml version="1.0" standalone="no"?>
<!DOCTYPE svg PUBLIC "-//W3C//DTD SVG 20010904//EN"
 "http://www.w3.org/TR/2001/REC-SVG-20010904/DTD/svg10.dtd">
<svg version="1.0" xmlns="http://www.w3.org/2000/svg"
 width="1024.000000pt" height="1024.000000pt" viewBox="0 0 1024.000000 1024.000000"
 preserveAspectRatio="xMidYMid meet">

<g transform="translate(0.000000,1024.000000) scale(0.100000,-0.100000)"
fill="#000000" stroke="none">
<path d="M4750 9486 c-618 -65 -1192 -251 -1739 -565 -175 -100 -286 -174
-462 -308 -737 -557 -1248 -1275 -1514 -2123 -219 -696 -247 -1482 -79 -2180
134 -559 314 -973 625 -1435 255 -379 550 -691 969 -1026 25 -20 104 -75 175
-124 350 -235 717 -418 1078 -537 320 -104 594 -166 917 -205 205 -25 743 -25
950 1 889 109 1674 450 2335 1015 729 623 1233 1472 1409 2376 58 299 80 585
73 955 -7 343 -36 582 -107 878 -138 569 -420 1151 -788 1627 -314 406 -765
801 -1212 1064 -513 301 -1043 484 -1660 572 -185 27 -770 36 -970 15z m735
-46 c675 -48 1311 -250 1897 -603 295 -177 514 -348 778 -604 420 -407 686
-792 933 -1348 215 -483 329 -992 344 -1530 20 -736 -125 -1398 -440 -2015
-142 -278 -326 -558 -524 -797 -92 -112 -394 -411 -528 -524 -537 -452 -1230
-787 -1915 -923 -305 -61 -414 -70 -835 -71 -347 0 -408 3 -555 22 -600 81
-1156 276 -1667 584 -293 177 -493 330 -736 561 -265 252 -456 477 -631 742
-357 538 -569 1095 -665 1751 -96 649 -21 1358 210 1990 206 563 568 1115
1010 1539 677 650 1502 1062 2385 1191 95 14 218 29 275 34 149 12 500 13 664
1z"/>
<path d="M4950 9330 c-900 -47 -1782 -404 -2480 -1005 -232 -200 -521 -514
-677 -736 -128 -182 -284 -444 -351 -589 -229 -500 -335 -880 -378 -1370 -19
-211 -14 -662 10 -835 67 -499 202 -938 422 -1377 166 -331 458 -730 749
-1023 265 -267 591 -512 940 -707 88 -49 351 -175 436 -208 774 -303 1498
-380 2293 -245 273 47 691 177 976 305 642 287 1176 720 1638 1327 384 506
658 1196 737 1853 55 461 40 887 -46 1310 -106 526 -311 1015 -609 1460 -173
259 -289 400 -515 626 -548 551 -1192 917 -1929 1099 -99 24 -233 54 -296 65
-256 45 -632 65 -920 50z m635 -66 c168 -17 331 -43 510 -80 120 -26 159 -39
151 -52 -2 -4 -38 -124 -80 -267 -98 -338 -151 -513 -157 -520 -3 -2 -55 6
-115 20 -254 58 -365 69 -699 69 -203 1 -343 -4 -405 -12 -93 -13 -244 -39
-286 -49 -20 -4 -26 8 -74 159 -29 90 -85 267 -126 394 -41 128 -74 236 -74
242 0 5 60 21 133 35 421 82 821 102 1222 61z m-1376 -151 c23 -80 156 -500
198 -630 l40 -121 -81 -22 c-308 -80 -679 -248 -951 -431 -126 -86 -340 -251
-400 -310 l-29 -29 -196 193 c-107 105 -243 239 -302 296 -60 57 -108 107
-108 111 0 11 192 176 310 266 427 326 850 537 1430 711 66 20 74 17 89 -34z
m2563 -152 c420 -180 805 -429 1146 -739 l94 -85 -303 -303 -302 -302 -91 83
c-319 294 -685 511 -1106 655 -85 29 -157 54 -159 57 -3 2 3 27 11 56 44 141
169 572 188 647 13 47 24 90 26 97 4 15 326 -92 496 -166z m-1202 -587 c232
-28 515 -99 755 -191 405 -154 802 -422 1126 -761 211 -220 455 -581 575 -852
153 -347 234 -667 267 -1052 13 -163 -1 -440 -33 -661 -51 -345 -158 -665
-335 -1005 -255 -487 -683 -931 -1174 -1214 -373 -216 -749 -340 -1211 -399
-122 -16 -510 -16 -665 0 -601 62 -1152 293 -1650 689 -145 116 -356 334 -522
539 -86 108 -238 354 -323 523 -73 145 -181 446 -220 614 -11 45 -31 155 -47
246 -25 155 -27 185 -27 485 -1 285 1 336 22 466 78 504 257 922 573 1345 464
619 1117 1033 1874 1187 321 66 684 80 1015 41z m-3116 -338 c61 -57 201 -192
310 -298 l200 -194 -50 -50 c-125 -124 -318 -371 -434 -556 -85 -135 -209
-384 -261 -525 -23 -62 -45 -113 -48 -113 -4 0 -65 18 -136 41 -412 130 -669
209 -681 209 -8 0 -14 -6 -14 -14 0 -8 29 -22 73 -35 39 -13 140 -44 222 -71
83 -27 231 -74 330 -105 99 -31 185 -58 191 -60 8 -2 3 -34 -17 -100 -72 -242
-109 -522 -109 -825 0 -234 11 -362 50 -569 11 -58 19 -106 17 -107 -1 -1
-178 -46 -392 -98 -415 -103 -485 -122 -485 -137 0 -17 41 -9 289 52 228 56
584 139 595 139 3 0 10 -19 16 -42 81 -316 222 -647 390 -916 62 -97 216 -300
281 -368 l30 -31 -342 -336 -342 -336 -47 52 c-147 163 -319 399 -449 621
-160 271 -322 663 -410 991 -141 527 -168 1173 -71 1720 113 635 421 1295 838
1795 67 80 333 370 340 370 2 0 55 -47 116 -104z m5655 2 c303 -322 524 -633
711 -1007 117 -234 177 -384 254 -631 123 -399 168 -715 167 -1180 0 -424 -44
-731 -162 -1135 -123 -421 -342 -853 -615 -1215 -97 -130 -236 -291 -246 -288
-4 2 -155 150 -335 329 l-328 326 73 89 c186 227 330 464 452 744 69 159 148
388 170 493 6 31 15 57 19 57 5 0 143 -40 307 -89 267 -80 516 -151 529 -151
3 0 5 6 5 14 0 17 -64 39 -365 126 -182 52 -324 95 -441 131 l-31 9 18 93 c33
173 44 317 44 597 0 215 -4 300 -18 390 -23 147 -60 314 -90 411 l-24 76 146
41 c80 23 227 62 326 87 193 50 334 92 349 106 24 22 -12 19 -121 -9 -320 -83
-478 -124 -583 -152 -117 -31 -140 -32 -140 -5 0 24 -86 237 -145 360 -131
270 -384 635 -559 805 l-46 44 302 303 c167 167 304 303 305 303 2 0 34 -33
72 -72z m-4894 -5159 c318 -247 655 -431 990 -541 88 -29 162 -53 164 -55 2
-1 -19 -76 -47 -165 -38 -123 -189 -633 -218 -735 -2 -8 -26 -5 -82 13 -113
34 -317 107 -420 150 -134 55 -426 204 -531 270 -51 32 -121 76 -154 97 -185
116 -405 295 -602 489 l-160 158 92 88 c50 48 204 198 341 334 l249 246 134
-132 c74 -72 184 -170 244 -217z m4728 -78 l255 -253 -121 -122 c-210 -211
-367 -339 -627 -513 -324 -217 -756 -420 -1101 -518 l-77 -22 -17 66 c-24 90
-135 471 -197 669 -27 90 -48 165 -47 167 2 2 78 28 169 58 206 68 339 126
527 231 283 157 477 302 707 526 l119 117 77 -76 c42 -42 192 -190 333 -330z
m-3408 -555 c437 -94 931 -93 1353 3 45 10 84 16 86 12 4 -7 49 -156 96 -316
18 -60 63 -209 102 -330 38 -121 70 -226 71 -234 4 -28 -331 -99 -618 -131
-220 -25 -596 -30 -790 -12 -174 17 -423 57 -572 92 l-130 31 29 97 c16 53 65
219 110 367 45 149 92 310 107 358 l25 89 31 -6 c16 -3 62 -12 100 -20z"/>
<path d="M5132 9195 c-185 -58 -217 -301 -51 -385 53 -28 124 -26 183 4 l47
24 -7 -32 c-10 -47 -39 -100 -76 -136 -38 -38 -121 -80 -159 -80 -18 0 -28 -6
-32 -20 -3 -11 -2 -22 1 -24 16 -8 152 24 197 47 50 25 140 111 165 157 46 85
54 245 16 326 -51 109 -164 157 -284 119z m125 -59 c35 -29 53 -83 60 -182 5
-64 4 -73 -13 -82 -40 -21 -88 -23 -123 -5 -48 25 -70 60 -78 121 -15 127 76
214 154 148z"/>
<path d="M3250 8568 c-47 -62 -120 -157 -162 -210 -58 -73 -78 -105 -78 -128
l0 -30 140 0 140 0 0 -64 c0 -58 -3 -67 -26 -85 -15 -12 -33 -21 -40 -21 -8 0
-14 -4 -14 -9 0 -6 59 -11 135 -13 119 -3 135 -1 135 13 0 10 -11 19 -29 22
-40 8 -49 31 -44 100 l5 57 39 0 c35 0 39 3 39 24 0 13 3 31 6 40 5 13 -2 16
-40 16 l-46 0 0 200 0 200 -37 0 c-37 0 -41 -4 -123 -112z m40 -168 l0 -130
-57 0 c-74 0 -135 10 -131 22 4 11 180 238 185 238 1 0 3 -58 3 -130z"/>
<path d="M7060 8619 c-25 -16 -62 -34 -82 -41 -48 -14 -50 -38 -5 -38 18 0 38
-5 45 -12 9 -9 12 -77 12 -243 0 -212 -2 -233 -18 -248 -10 -10 -29 -17 -41
-17 -14 0 -21 -5 -19 -12 7 -20 268 -24 268 -5 0 8 -14 17 -30 21 -20 4 -34
14 -40 31 -6 15 -10 148 -10 311 0 322 4 308 -80 253z"/>
<path d="M4965 8274 c-432 -32 -839 -150 -1206 -349 -453 -246 -811 -581
-1114 -1044 -79 -120 -208 -376 -259 -512 -58 -158 -123 -403 -153 -579 -26
-154 -28 -184 -27 -440 0 -250 3 -290 28 -445 15 -93 36 -207 46 -252 95 -405
317 -859 582 -1186 153 -189 428 -446 603 -564 440 -296 832 -455 1315 -532
351 -56 794 -33 1141 58 551 146 981 390 1369 780 283 285 470 558 632 925
114 258 165 437 223 786 25 149 31 503 11 685 -42 392 -139 709 -321 1062
-270 520 -666 929 -1192 1230 -318 183 -684 306 -1063 358 -109 15 -505 27
-615 19z m561 -67 c4 -4 -7 -123 -25 -264 -17 -142 -31 -271 -31 -287 0 -19
-4 -26 -9 -20 -20 20 -144 265 -189 371 -41 99 -62 134 -62 104 0 -15 -203
-431 -210 -431 -7 0 -32 179 -50 370 -6 58 -13 120 -17 139 l-6 33 296 -4
c163 -2 299 -7 303 -11z m-612 -79 c9 -111 33 -303 52 -411 l15 -88 -62 -117
c-33 -64 -82 -154 -107 -200 l-46 -83 -23 78 c-13 43 -39 140 -58 217 -20 76
-49 180 -65 230 -16 50 -41 136 -55 191 -15 55 -35 124 -45 153 -14 39 -16 54
-7 58 30 11 297 53 343 53 l51 1 7 -82z m818 47 c165 -30 241 -52 235 -68 -33
-92 -240 -776 -263 -870 -3 -15 -9 -29 -13 -32 -4 -2 -52 83 -108 189 l-100
194 17 138 c10 77 26 214 36 307 21 196 -2 179 196 142z m-1230 -97 c10 -40
35 -134 56 -208 36 -124 58 -203 157 -555 l34 -120 -56 -102 c-31 -57 -60
-103 -64 -103 -4 0 -30 53 -57 118 -64 148 -202 456 -325 724 -66 144 -92 210
-84 215 11 6 304 101 317 103 3 0 13 -33 22 -72z m1605 1 c54 -17 121 -42 150
-54 l52 -23 -141 -309 c-285 -628 -335 -735 -343 -736 -16 -3 -124 216 -115
232 4 9 42 133 85 276 42 143 92 307 110 365 19 58 43 139 55 180 29 101 28
100 40 100 5 0 54 -14 107 -31z m-1967 -63 c0 -7 21 -58 46 -112 25 -55 63
-137 84 -184 37 -83 215 -481 300 -669 l43 -94 -49 -99 c-26 -54 -51 -98 -54
-98 -4 0 -12 11 -18 24 -22 49 -680 1077 -695 1088 -11 7 68 49 213 114 102
45 130 52 130 30z m2385 -115 c156 -84 187 -102 300 -176 187 -124 428 -335
569 -498 91 -107 156 -192 156 -206 0 -5 -33 -29 -72 -53 -40 -25 -183 -113
-318 -198 -201 -125 -537 -332 -686 -421 l-30 -18 -69 69 c-66 67 -69 71 -50
84 19 13 108 86 405 331 69 56 181 149 250 205 177 146 330 281 330 291 0 17
-12 9 -104 -69 -50 -43 -138 -116 -195 -163 -58 -46 -144 -115 -191 -154 -48
-38 -154 -126 -235 -195 -82 -69 -182 -153 -223 -187 l-73 -61 -67 50 c-37 28
-68 54 -70 58 -2 5 52 68 120 142 68 73 148 160 178 193 30 34 129 141 220
240 196 212 350 387 350 397 0 19 -21 3 -80 -64 -36 -40 -128 -140 -205 -223
-247 -265 -566 -617 -593 -655 -12 -17 -18 -15 -95 28 -45 25 -83 46 -85 47
-1 1 62 99 140 216 302 451 572 882 566 901 -5 13 -61 -70 -290 -429 -230
-359 -431 -663 -437 -662 -3 0 -28 44 -54 97 l-48 97 137 290 c75 160 144 310
154 335 10 25 46 106 80 180 34 74 74 167 88 206 l27 72 55 -25 c30 -13 96
-46 145 -72z m-1167 -211 c76 -146 185 -353 242 -460 202 -381 250 -474 246
-477 -2 -2 -43 10 -92 26 -49 16 -143 42 -209 57 -112 26 -135 28 -345 28
-207 1 -235 -2 -350 -26 -69 -15 -152 -36 -185 -47 -33 -11 -61 -18 -63 -16
-5 5 119 239 258 491 60 107 164 307 231 444 68 137 124 248 125 247 1 -1 65
-121 142 -267z m-1488 30 c47 -74 134 -212 195 -307 60 -95 145 -227 187 -295
43 -68 116 -183 162 -256 l85 -132 -82 -43 c-45 -23 -87 -43 -93 -45 -6 -2
-31 21 -55 50 -24 29 -121 136 -215 238 -94 102 -224 243 -290 315 -165 180
-356 376 -361 371 -3 -3 -1 -11 4 -19 9 -17 212 -240 448 -492 245 -261 435
-473 434 -482 0 -4 -34 -32 -76 -61 -65 -46 -78 -51 -93 -40 -24 18 -240 202
-450 383 -231 200 -246 212 -385 325 -137 110 -175 137 -175 122 0 -6 48 -51
108 -100 192 -160 302 -253 587 -498 44 -38 131 -111 193 -162 61 -52 112 -97
112 -101 0 -3 -34 -37 -75 -74 l-74 -68 -43 27 c-24 15 -79 51 -123 80 -45 29
-120 77 -168 106 -48 29 -167 104 -264 167 -193 123 -278 177 -420 265 -51 32
-95 61 -98 66 -8 12 96 138 226 274 117 122 325 299 459 389 104 71 243 148
250 139 4 -4 44 -68 90 -142z m-888 -778 c236 -152 657 -418 816 -517 90 -55
141 -93 138 -101 -8 -20 -119 -154 -128 -154 -5 0 -69 27 -144 60 -74 33 -137
60 -139 60 -3 0 -91 36 -197 81 -106 45 -296 123 -423 174 -126 51 -247 100
-267 109 -21 9 -38 12 -38 6 0 -17 49 -39 675 -295 138 -56 312 -128 387 -161
l138 -58 -22 -36 c-12 -19 -35 -59 -50 -87 -16 -29 -34 -53 -39 -53 -16 0
-285 69 -379 97 -145 43 -865 221 -873 216 -21 -12 26 -27 288 -92 154 -39
386 -99 515 -134 129 -36 280 -75 335 -87 55 -13 102 -24 104 -26 2 -2 -13
-41 -34 -87 l-37 -84 -41 3 c-23 2 -100 8 -172 14 -154 12 -504 43 -805 70
-244 23 -288 24 -274 10 11 -11 620 -73 999 -101 154 -11 281 -22 282 -23 2
-2 -7 -40 -19 -85 l-23 -81 -648 1 -647 1 6 51 c42 360 123 637 278 952 90
182 259 455 282 455 1 0 71 -44 156 -98z m4645 -24 c184 -284 312 -559 384
-828 50 -189 113 -550 98 -564 -4 -4 -284 5 -749 24 -140 5 -314 10 -385 10
l-131 0 -21 80 c-12 44 -18 82 -15 84 4 2 90 6 192 10 449 16 1056 48 1064 57
17 16 -67 13 -1029 -28 -104 -4 -203 -8 -219 -8 -26 0 -31 6 -55 67 -14 36
-30 70 -34 74 -15 16 -5 22 66 37 39 9 131 30 202 46 72 16 157 35 190 41 255
50 755 167 769 181 16 15 -22 11 -139 -16 -60 -14 -193 -43 -295 -65 -186 -39
-327 -69 -629 -135 -90 -19 -168 -35 -175 -35 -10 1 -112 169 -105 174 6 3
909 363 979 390 96 36 203 86 197 92 -3 3 -61 -15 -129 -41 -67 -26 -175 -66
-238 -90 -63 -24 -239 -94 -390 -156 -151 -61 -312 -126 -357 -144 l-81 -33
-33 47 c-19 25 -50 64 -69 85 -19 22 -30 41 -24 43 13 4 354 209 554 333 247
152 495 313 520 336 13 13 25 24 26 24 1 0 28 -42 61 -92z m-2215 -123 c355
-46 655 -192 926 -450 l64 -60 -404 -5 -403 -5 -3 -36 -3 -35 65 -13 c144 -29
248 -104 277 -202 13 -45 24 -1063 11 -1085 -7 -13 -17 -5 -58 47 -27 35 -112
143 -189 239 -77 97 -230 290 -340 429 -110 140 -272 344 -360 455 l-160 201
-418 5 -417 5 77 76 c43 42 107 98 143 125 331 253 763 365 1192 309z m1130
-690 c112 -167 200 -378 245 -585 27 -128 24 -425 -6 -578 -58 -296 -210 -581
-425 -798 -81 -81 -225 -194 -248 -194 -13 0 -10 1958 3 2022 30 138 108 207
255 224 41 5 55 11 60 26 6 19 7 19 31 -4 14 -12 52 -63 85 -113z m-2556 95
c25 0 105 -25 140 -43 49 -26 114 -87 135 -128 19 -38 19 -58 17 -927 l-3
-887 -22 -41 c-26 -48 -73 -91 -111 -101 -23 -6 -37 5 -124 96 -293 307 -452
721 -434 1131 13 319 118 608 310 862 42 55 53 64 62 52 6 -7 20 -14 30 -14z
m645 -620 c229 -295 401 -512 794 -1005 171 -214 342 -430 380 -480 38 -49 96
-118 128 -152 49 -51 58 -65 48 -77 -16 -19 -204 -98 -313 -131 -348 -105
-688 -96 -1035 26 -120 43 -333 150 -333 169 0 3 112 4 250 2 272 -4 272 -4
251 51 -7 19 -18 27 -35 27 -52 0 -168 34 -218 63 -35 21 -62 49 -83 81 l-30
49 -3 816 c-2 504 1 812 7 806 5 -6 91 -116 192 -245z m-1082 -30 c0 -3 -6
-34 -13 -70 -14 -78 6 -70 -276 -100 -235 -24 -779 -86 -908 -104 -51 -7 -95
-10 -97 -8 -7 7 -6 191 1 244 l6 44 644 0 c354 -1 644 -3 643 -6z m3746 -25
c209 -9 479 -19 600 -23 l220 -7 3 -142 c2 -103 -1 -143 -9 -143 -14 0 -275
41 -509 80 -203 33 -565 86 -662 95 -74 8 -65 -3 -83 113 l-7 42 34 0 c18 0
204 -7 413 -15z m-3824 -220 c-27 -41 -51 -79 -53 -83 -2 -5 -192 -55 -423
-112 -467 -114 -675 -170 -675 -182 0 -4 6 -8 13 -8 6 0 246 59 532 130 285
72 522 129 525 128 4 -2 -37 -73 -90 -158 -53 -85 -167 -270 -254 -410 -87
-140 -195 -313 -241 -385 -108 -171 -125 -200 -125 -214 0 -8 119 -12 425 -13
l426 -3 -48 -36 c-26 -20 -79 -61 -118 -91 -38 -30 -117 -90 -175 -133 -224
-168 -302 -235 -275 -235 13 0 416 306 596 453 l58 47 161 0 c158 0 160 0 150
-20 -10 -18 -7 -24 13 -21 21 3 -7 -28 -159 -179 -171 -170 -534 -554 -534
-564 0 -23 43 15 165 145 77 82 235 245 350 362 l210 213 128 -4 c103 -2 128
-6 124 -17 -3 -7 -86 -118 -184 -246 -258 -340 -503 -692 -490 -706 3 -3 34
34 69 82 141 196 421 579 521 713 59 79 107 147 107 152 0 7 149 -86 168 -105
3 -2 -8 -26 -24 -52 -15 -26 -62 -115 -104 -198 -42 -82 -145 -284 -229 -447
-83 -163 -147 -299 -142 -302 11 -7 43 52 290 534 95 184 184 358 198 385 14
28 29 54 33 59 6 6 158 -53 178 -69 2 -1 -4 -18 -12 -36 -9 -19 -54 -140 -102
-269 -48 -129 -102 -278 -121 -330 -20 -52 -65 -183 -101 -290 -36 -107 -66
-197 -68 -199 -6 -7 -118 42 -254 110 -245 123 -406 229 -606 395 -120 102
-325 307 -392 394 -23 30 -60 78 -81 106 -72 93 -201 307 -271 449 -179 362
-290 776 -301 1130 l-3 70 90 8 c95 8 832 91 999 112 55 7 117 13 137 14 l38
1 -49 -75z m3649 31 c58 -8 146 -22 195 -30 359 -56 695 -107 745 -113 l59 -6
-5 -61 c-45 -508 -196 -972 -436 -1346 -233 -362 -479 -625 -792 -847 -49 -35
-94 -63 -100 -63 -6 0 -24 23 -39 51 -16 28 -100 157 -186 287 -86 130 -169
257 -184 282 -76 128 -224 349 -245 365 -11 9 1 21 50 55 35 24 73 52 85 63
l21 19 70 -84 c38 -45 116 -140 173 -210 57 -71 194 -235 303 -365 110 -131
201 -240 203 -242 2 -2 5 -2 8 1 7 7 -50 90 -101 147 -63 70 -54 74 15 8 33
-32 63 -57 66 -57 4 0 -23 33 -61 73 -37 39 -121 128 -185 197 -65 69 -150
166 -190 215 -136 169 -154 190 -213 255 l-60 65 198 3 c169 2 200 0 210 -13
6 -8 41 -36 78 -63 37 -26 154 -113 260 -193 226 -170 362 -269 371 -269 20 0
0 23 -60 68 -38 27 -156 116 -263 197 -107 82 -235 177 -284 212 l-88 63 495
2 495 3 -134 215 c-73 118 -161 260 -196 315 -142 230 -368 608 -365 611 3 4
159 -36 332 -85 39 -11 198 -56 354 -101 155 -44 295 -80 310 -80 41 1 9 15
-109 48 -58 17 -224 64 -370 107 -146 42 -328 92 -404 110 -77 19 -140 36
-141 37 -1 2 -22 35 -45 73 -24 39 -49 77 -57 86 -7 8 -13 18 -13 20 0 6 88
-4 230 -25z m-161 -206 c117 -191 574 -937 612 -997 l38 -63 -615 0 -616 0 72
78 c86 93 195 253 257 375 93 186 162 459 166 655 2 96 -4 99 86 -48z m-3436
-2 c21 -351 183 -720 437 -992 l62 -66 -616 0 -615 0 83 138 c45 75 168 274
273 442 104 168 228 369 274 447 46 78 87 142 90 143 3 0 9 -51 12 -112z
m2672 -1407 c39 -59 101 -156 140 -217 38 -60 151 -231 250 -380 l180 -271
-50 -33 c-115 -77 -375 -202 -529 -256 -82 -28 -76 -27 -76 -11 0 7 -83 262
-185 567 -102 305 -185 557 -185 561 0 6 160 72 165 68 4 -5 111 -230 185
-389 32 -69 76 -161 98 -205 21 -44 74 -153 118 -242 43 -90 82 -163 87 -163
17 0 20 -8 -322 713 -77 164 -141 299 -141 301 0 2 36 20 80 40 44 21 83 43
87 49 4 7 10 5 17 -7 6 -9 43 -66 81 -125z m-1500 -46 c39 -12 69 -27 68 -34
-2 -6 -32 -149 -67 -318 -36 -170 -85 -402 -110 -516 -45 -203 -55 -270 -37
-237 8 14 32 110 96 385 14 61 41 184 60 275 18 91 43 212 55 270 12 58 23
115 26 126 4 21 5 21 76 7 40 -9 74 -16 76 -18 2 -1 -4 -56 -13 -121 -50 -390
-109 -865 -118 -962 -9 -93 -14 -111 -27 -108 -8 3 -35 8 -60 11 -109 16 -509
122 -528 140 -7 6 30 121 93 290 35 94 93 253 129 355 35 102 87 248 116 325
28 77 53 146 55 154 3 8 12 10 23 6 9 -4 49 -18 87 -30z m1200 -552 c102 -301
189 -556 195 -566 13 -22 -1 -28 -179 -73 -159 -41 -338 -74 -396 -74 l-42 0
-6 63 c-9 96 -43 450 -77 787 -16 168 -30 315 -30 326 0 19 8 23 68 30 37 4
71 8 76 9 5 0 17 -40 27 -90 10 -49 57 -289 105 -532 48 -243 90 -447 95 -454
20 -34 16 11 -16 177 -19 98 -42 220 -51 269 -8 50 -40 206 -70 348 -30 141
-54 265 -54 275 0 14 17 22 83 38 45 11 83 19 85 18 2 -1 86 -249 187 -551z
m-803 477 l29 0 -2 -600 c0 -330 -4 -602 -7 -603 -7 -4 -137 6 -240 18 -63 7
-64 8 -58 34 16 76 66 449 116 871 17 146 33 271 36 279 3 10 16 12 51 7 25
-3 59 -6 75 -6z m248 -47 c0 -64 55 -664 81 -878 11 -93 23 -193 26 -221 l5
-51 -68 -6 c-38 -4 -109 -7 -158 -7 l-89 0 6 302 c4 166 7 438 7 605 l0 303
95 0 95 0 0 -47z"/>
<path d="M2095 7383 l-161 -3 -32 -163 c-18 -89 -32 -165 -32 -168 0 -3 24 -4
53 -1 129 10 227 -62 227 -168 0 -64 -36 -119 -88 -135 -39 -12 -88 4 -142 44
l-52 39 -36 -40 -36 -40 27 -24 c41 -35 128 -57 191 -50 107 14 198 74 240
158 46 92 27 193 -48 255 -48 39 -96 53 -185 53 l-73 0 6 28 c3 15 8 44 12 65
l6 37 138 0 138 0 11 44 c13 52 14 77 4 74 -5 -1 -80 -4 -168 -5z"/>
<path d="M1657 5725 c-131 -36 -239 -121 -293 -230 -27 -56 -29 -68 -29 -175
0 -107 2 -118 27 -161 37 -63 78 -96 145 -115 246 -72 433 211 247 375 -64 56
-134 66 -226 31 -28 -11 -54 -18 -56 -16 -2 3 8 32 23 65 44 98 142 174 240
188 39 5 45 9 45 29 0 21 -4 24 -37 23 -21 0 -60 -7 -86 -14z m-38 -353 c49
-36 65 -69 69 -141 5 -85 -12 -124 -63 -141 -30 -10 -41 -9 -72 7 -55 27 -84
90 -90 197 l-6 85 34 10 c44 13 97 6 128 -17z"/>
<path d="M1846 3868 c-17 -56 -34 -144 -29 -151 3 -6 18 4 32 22 l26 32 141
-3 141 -3 -134 -274 c-73 -150 -133 -275 -133 -277 0 -2 26 -4 58 -4 l59 0 83
193 c46 105 105 242 132 304 26 61 51 125 54 142 l7 31 -217 0 c-165 0 -218
-3 -220 -12z"/>
<path d="M8235 7394 c-61 -15 -111 -64 -132 -130 -26 -83 0 -116 36 -45 45 87
122 115 192 68 42 -28 63 -84 55 -150 -9 -84 -59 -161 -183 -284 -84 -83 -113
-118 -113 -137 l0 -25 224 -1 223 -1 6 33 c3 18 13 54 21 81 13 40 13 47 1 47
-8 0 -25 -11 -39 -25 -24 -24 -30 -25 -157 -25 l-132 0 111 114 c132 135 172
204 172 297 0 134 -135 222 -285 183z"/>
<path d="M8705 5724 c-59 -21 -105 -66 -105 -103 0 -45 16 -47 60 -7 32 29 48
36 81 36 49 0 91 -20 106 -52 39 -76 -5 -167 -92 -190 -45 -12 -53 -38 -11
-38 32 -1 98 -34 125 -64 19 -20 26 -40 29 -85 5 -71 -15 -115 -62 -138 -47
-22 -90 -11 -154 37 -61 47 -76 46 -111 -6 l-25 -36 25 -19 c46 -35 116 -52
199 -47 64 4 87 10 141 40 86 47 119 94 126 180 4 52 2 72 -16 105 -22 45 -61
78 -105 89 l-28 7 35 36 c46 48 59 75 59 126 2 111 -141 178 -277 129z"/>
<path d="M8439 3960 c-33 -5 -46 -18 -144 -145 -59 -77 -130 -166 -156 -198
-38 -45 -49 -67 -49 -93 l0 -34 140 0 140 0 0 -60 c0 -51 -4 -65 -25 -85 -13
-14 -31 -25 -40 -25 -8 0 -15 -6 -15 -12 0 -10 33 -13 130 -14 99 -1 130 2
130 11 0 7 -11 16 -25 19 -34 9 -46 38 -43 104 l3 57 38 3 c28 2 37 8 37 22 0
10 3 25 6 34 4 11 -4 15 -38 18 l-43 3 -5 200 -5 200 -36 -5z m-69 -270 l0
-130 -57 1 c-32 0 -77 4 -100 7 l-42 7 92 122 c51 68 95 123 100 123 4 0 7
-58 7 -130z"/>
<path d="M3087 2468 c-9 -45 -14 -84 -11 -87 2 -2 19 10 37 27 l33 32 132 0
c73 0 132 -2 132 -3 0 -2 -56 -118 -124 -258 -67 -140 -126 -264 -130 -277 -7
-22 -6 -23 48 -20 l57 3 115 260 c97 220 164 383 164 401 0 2 -98 4 -218 4
l-219 0 -16 -82z"/>
<path d="M7225 2570 c-4 -6 -70 -10 -166 -10 -120 0 -159 -3 -159 -12 0 -7
-16 -84 -34 -171 l-34 -158 43 7 c64 9 150 -12 190 -48 56 -49 70 -143 30
-205 -20 -30 -73 -63 -103 -63 -29 0 -79 25 -114 57 -32 30 -58 25 -89 -18
-20 -29 -20 -31 -3 -50 22 -25 104 -49 165 -49 100 0 232 76 276 159 28 53 31
136 7 187 -36 76 -135 126 -254 129 -36 1 -65 4 -64 8 1 4 6 32 13 62 l12 55
143 0 143 0 7 43 c4 23 9 52 13 65 5 22 -10 31 -22 12z"/>
<path d="M5300 2034 c-143 -38 -257 -126 -314 -244 -29 -60 -31 -73 -31 -170
0 -89 3 -111 22 -146 26 -48 92 -111 139 -130 44 -18 131 -18 185 1 155 55
201 265 82 377 -55 52 -135 62 -231 29 l-54 -19 7 36 c10 51 30 87 76 133 45
45 123 86 182 95 31 5 37 11 37 30 0 29 -18 30 -100 8z m-54 -353 c17 -11 41
-40 54 -65 18 -39 22 -59 18 -118 -3 -62 -7 -73 -31 -94 -34 -29 -92 -32 -123
-6 -43 34 -67 101 -72 199 -5 103 -8 100 78 102 28 1 57 -6 76 -18z"/>
</g>
</svg>
